<svg xmlns="http://www.w3.org/2000/svg" viewBox="0 0 152.13 83.7"><defs><style>.cls-1{fill:#ffe7ab;}.cls-2{fill:#abbeff;}.cls-3{fill:#c7d3ff;}.cls-4{fill:#7ca0e0;}.cls-5{fill:#ebf9ff;}</style></defs><g id="Calque_2" data-name="Calque 2"><g id="Calque_1-2" data-name="Calque 1"><path class="cls-1" d="M148,21.7a9,9,0,0,1-9,9H104a9,9,0,0,1-8.35-5.65,10,10,0,0,0,2.84-1.62,2.2,2.2,0,0,0,.94-1.8A1.83,1.83,0,0,0,99,20.41a1.41,1.41,0,0,0-1.12-.51,2.29,2.29,0,0,0-1.15.36,12.92,12.92,0,0,1-1.72,1,9,9,0,0,1,9-8.53h9.25l-.87,10.88a2.25,2.25,0,0,0,.5,1.72,2.12,2.12,0,0,0,1.62.62,2.34,2.34,0,0,0,1.66-.62,2.48,2.48,0,0,0,.75-1.69l.72-8.93h13l-.72,8.9a2.21,2.21,0,0,0,.51,1.72,2.1,2.1,0,0,0,1.62.62,2.36,2.36,0,0,0,1.69-.62,2.45,2.45,0,0,0,.76-1.69l.85-10.91H139A9,9,0,0,1,148,21.7Z"/><path class="cls-2" d="M57.78,69.16a7.52,7.52,0,0,1-1.61-3.46H63a9,9,0,0,1,6.09,2.38,5.07,5.07,0,0,1-.36.54,6.68,6.68,0,0,1-5.62,2.7A6.68,6.68,0,0,1,57.78,69.16Z"/><path class="cls-3" d="M72,74.7a9,9,0,0,1-9,9H9a9,9,0,0,1,0-18h8.77l-.54,6.88a2.21,2.21,0,0,0,.51,1.72,2.1,2.1,0,0,0,1.62.62,2.36,2.36,0,0,0,1.69-.62,2.44,2.44,0,0,0,.75-1.69l.53-6.91h6.5a4.34,4.34,0,0,1,.57.9L33,73.66a2.27,2.27,0,0,0,.87,1A2.35,2.35,0,0,0,35,75a2.51,2.51,0,0,0,1.65-.61,1.88,1.88,0,0,0,.72-1.48,2,2,0,0,0-.25-1l-2.66-5.11a7.71,7.71,0,0,0-.68-1.12H51.49a12.45,12.45,0,0,0,1.22,3.71,10.11,10.11,0,0,0,4.1,4.17A13.27,13.27,0,0,0,63.15,75a12,12,0,0,0,6.48-1.72,11,11,0,0,0,1.89-1.49A8.89,8.89,0,0,1,72,74.7Z"/><path class="cls-4" d="M151.66,49.72a1.88,1.88,0,0,0-1.48-.62,2.72,2.72,0,0,0-2.34,1.52l-9.22,15.15-6.69-15.08a2.3,2.3,0,0,0-2.13-1.55,2.23,2.23,0,0,0-1.62.65,2.4,2.4,0,0,0-.72,1.62l-1.69,21.35a2.06,2.06,0,0,0,.47,1.58,1.9,1.9,0,0,0,1.44.58,2.12,2.12,0,0,0,1.51-.58,2.23,2.23,0,0,0,.69-1.51L131,58.25l5.22,11.23a3.22,3.22,0,0,0,.86,1.15,2,2,0,0,0,1.19.36,1.92,1.92,0,0,0,1.15-.36,4,4,0,0,0,1.05-1.11l7-11.49-1.15,14.73a2.06,2.06,0,0,0,.47,1.58,2,2,0,0,0,1.47.58,2.07,2.07,0,0,0,1.48-.54,2.28,2.28,0,0,0,.68-1.55l1.69-21.49A2.09,2.09,0,0,0,151.66,49.72Zm-40.41,4.93a9.77,9.77,0,0,0-4.14-4.18,12.81,12.81,0,0,0-6.3-1.47,12,12,0,0,0-6.48,1.72A11.81,11.81,0,0,0,90,55.62a16.74,16.74,0,0,0-1.51,7.31,13.77,13.77,0,0,0,1.44,6.48,10.07,10.07,0,0,0,4.11,4.17A13.26,13.26,0,0,0,100.38,75a12,12,0,0,0,6.48-1.72,11.54,11.54,0,0,0,4.29-4.86,16.59,16.59,0,0,0,1.54-7.35A13.52,13.52,0,0,0,111.25,54.65Zm-5.29,14A7.4,7.4,0,0,1,95,69.16,9.19,9.19,0,0,1,93.15,63a12.26,12.26,0,0,1,2-7.52,6.69,6.69,0,0,1,5.65-2.74,6.59,6.59,0,0,1,5.29,2.2A9.16,9.16,0,0,1,108,61.09,12.31,12.31,0,0,1,106,68.62ZM74,54.65a9.77,9.77,0,0,0-4.14-4.18A12.86,12.86,0,0,0,63.58,49a12,12,0,0,0-6.48,1.72,11.67,11.67,0,0,0-4.32,4.9,16.6,16.6,0,0,0-1.51,7.31,16.28,16.28,0,0,0,.22,2.77h4.68A13.57,13.57,0,0,1,55.91,63,12.32,12.32,0,0,1,58,55.44a6.71,6.71,0,0,1,5.66-2.74,6.59,6.59,0,0,1,5.29,2.2,9.16,9.16,0,0,1,1.87,6.19,12.83,12.83,0,0,1-1.69,7,8.84,8.84,0,0,1,2.43,3.73,12,12,0,0,0,2.39-3.37,16.59,16.59,0,0,0,1.55-7.35A13.52,13.52,0,0,0,74,54.65ZM38.54,56.41a6.55,6.55,0,0,0-2.16-5.22,8.83,8.83,0,0,0-6-1.87H21.26a2.43,2.43,0,0,0-1.69.58,2.33,2.33,0,0,0-.68,1.62L17.77,65.7h4.56l.09-1.19h3.49A4.16,4.16,0,0,1,28,65a2.83,2.83,0,0,1,.8.72h5a4,4,0,0,0-.55-.65,3.51,3.51,0,0,0-1.55-.9Q38.54,63.15,38.54,56.41ZM29.18,61H22.7l.62-8H29.8a4.94,4.94,0,0,1,3.31.94,3.44,3.44,0,0,1,1.08,2.8Q34.19,61,29.18,61ZM135.6.79A2.08,2.08,0,0,0,134,.14a2.34,2.34,0,0,0-1.69.61,2.35,2.35,0,0,0-.72,1.66l-.69,8.53h-13l.69-8.5A2.1,2.1,0,0,0,118.1.79a2.05,2.05,0,0,0-1.62-.65,2.36,2.36,0,0,0-1.69.61,2.43,2.43,0,0,0-.72,1.66l-.82,10.29H135.3l.8-10.26A2.1,2.1,0,0,0,135.6.79ZM99.79,2.41A10.51,10.51,0,0,0,96.29.68,14.56,14.56,0,0,0,91.69,0a13.15,13.15,0,0,0-6.81,1.72,11.39,11.39,0,0,0-4.5,4.86,16.33,16.33,0,0,0-1.58,7.35,14,14,0,0,0,1.4,6.44,9.92,9.92,0,0,0,4,4.21A12.6,12.6,0,0,0,90.36,26,14.22,14.22,0,0,0,95,25.3c.24-.08.47-.16.69-.25A8.85,8.85,0,0,1,95,21.7c0-.16,0-.32,0-.47a10.25,10.25,0,0,1-4.37,1,6.66,6.66,0,0,1-5.29-2.12A9.26,9.26,0,0,1,83.51,14a11.52,11.52,0,0,1,2.2-7.45,7.42,7.42,0,0,1,6.12-2.73,9.75,9.75,0,0,1,6.09,2,2,2,0,0,0,1.18.39,1.56,1.56,0,0,0,1.23-.54,2,2,0,0,0,.5-1.37A2.1,2.1,0,0,0,99.79,2.41ZM65.3,4c1.51,0,2.27-.65,2.27-1.94A1.58,1.58,0,0,0,67,.79,2.12,2.12,0,0,0,65.55.32H52.49A2.3,2.3,0,0,0,50.83.9a2.25,2.25,0,0,0-.68,1.58l-1.66,21a2.15,2.15,0,0,0,.43,1.62,2.1,2.1,0,0,0,1.62.58h13a2.67,2.67,0,0,0,1.7-.47,1.77,1.77,0,0,0,.61-1.44,1.58,1.58,0,0,0-.54-1.26,2.17,2.17,0,0,0-1.51-.5H53.13l.58-7.42h10C65.27,14.61,66,14,66,12.7a1.61,1.61,0,0,0-.54-1.26A2.23,2.23,0,0,0,64,11H54l.54-7ZM37.72.79A2.18,2.18,0,0,0,36.2.32H18.49c-1.53,0-2.3.68-2.3,2.05a1.73,1.73,0,0,0,.5,1.33,2.42,2.42,0,0,0,1.55.44h6.52L23.21,23.58a2,2,0,0,0,2.16,2.3,2.51,2.51,0,0,0,1.73-.61,2.37,2.37,0,0,0,.75-1.66L29.4,4.14H36c1.54,0,2.31-.68,2.31-2A1.65,1.65,0,0,0,37.72.79Z"/><path class="cls-5" d="M99.43,21.63a2.2,2.2,0,0,1-.94,1.8,10,10,0,0,1-2.84,1.62A8.85,8.85,0,0,1,95,21.7c0-.16,0-.32,0-.47a12.92,12.92,0,0,0,1.72-1,2.29,2.29,0,0,1,1.15-.36,1.41,1.41,0,0,1,1.12.51A1.83,1.83,0,0,1,99.43,21.63Z"/><path class="cls-5" d="M135.3,12.7l-.85,10.91a2.45,2.45,0,0,1-.76,1.69,2.36,2.36,0,0,1-1.69.62,2.1,2.1,0,0,1-1.62-.62,2.21,2.21,0,0,1-.51-1.72l.72-8.9h-13l-.72,8.93a2.48,2.48,0,0,1-.75,1.69,2.34,2.34,0,0,1-1.66.62,2.12,2.12,0,0,1-1.62-.62,2.25,2.25,0,0,1-.5-1.72l.87-10.88Z"/><path class="cls-5" d="M71.52,71.81a11,11,0,0,1-1.89,1.49A12,12,0,0,1,63.15,75a13.27,13.27,0,0,1-6.34-1.44,10.11,10.11,0,0,1-4.1-4.17,12.45,12.45,0,0,1-1.22-3.71h4.68a7.52,7.52,0,0,0,1.61,3.46,6.68,6.68,0,0,0,5.33,2.16,6.68,6.68,0,0,0,5.62-2.7,5.07,5.07,0,0,0,.36-.54A8.84,8.84,0,0,1,71.52,71.81Z"/><path class="cls-5" d="M37.39,72.9a1.88,1.88,0,0,1-.72,1.48A2.51,2.51,0,0,1,35,75a2.35,2.35,0,0,1-1.19-.33,2.27,2.27,0,0,1-.87-1L29.4,66.6a4.34,4.34,0,0,0-.57-.9h5a7.71,7.71,0,0,1,.68,1.12l2.66,5.11A2,2,0,0,1,37.39,72.9Z"/><path class="cls-5" d="M22.33,65.7l-.53,6.91a2.44,2.44,0,0,1-.75,1.69,2.36,2.36,0,0,1-1.69.62,2.1,2.1,0,0,1-1.62-.62,2.21,2.21,0,0,1-.51-1.72l.54-6.88Z"/></g></g></svg>